<?xml version="1.0" encoding="UTF-8" standalone="no"?>
<svg
   xmlns:dc="http://purl.org/dc/elements/1.1/"
   xmlns:cc="http://creativecommons.org/ns#"
   xmlns:rdf="http://www.w3.org/1999/02/22-rdf-syntax-ns#"
   xmlns:svg="http://www.w3.org/2000/svg"
   xmlns="http://www.w3.org/2000/svg"
   xmlns:xlink="http://www.w3.org/1999/xlink"
   id="svg8"
   version="1.1"
   viewBox="0 0 38.1 38.1"
   height="144"
   width="144">
  <defs
     id="defs2">
    <linearGradient
       id="linearGradient850">
      <stop
         id="stop846"
         offset="0"
         style="stop-color:#ff2a2a;stop-opacity:1" />
      <stop
         id="stop848"
         offset="1"
         style="stop-color:#ffdd55;stop-opacity:1" />
    </linearGradient>
    <linearGradient
       gradientTransform="matrix(0.61468171,0,0,0.61468171,4.3238395,-11.130997)"
       gradientUnits="userSpaceOnUse"
       y2="21.049635"
       x2="74.677376"
       y1="56.453934"
       x1="13.35533"
       id="linearGradient854"
       xlink:href="#linearGradient850" />
  </defs>
  <metadata
     id="metadata5">
    <rdf:RDF>
      <cc:Work
         rdf:about="">
        <dc:format>image/svg+xml</dc:format>
        <dc:type
           rdf:resource="http://purl.org/dc/dcmitype/StillImage" />
        <dc:title></dc:title>
      </cc:Work>
    </rdf:RDF>
  </metadata>
  <g
     transform="translate(-10.155567,10.281439)"
     id="layer1">
    <path
       id="path838"
       d="m 29.205408,-10.281439 c -10.521009,9e-6 -19.049831,8.5288323 -19.049841,19.0498409 10e-6,10.5210091 8.528832,19.0501501 19.049841,19.0501591 10.521009,-9e-6 19.05015,-8.52915 19.050159,-19.0501591 -9e-6,-10.5210072 -8.52915,-19.0498309 -19.050159,-19.0498409 z m 0.766797,6.1054663 c 3.322862,0 6.572699,1.0590091 8.94617,2.629152 l -1.78898,3.7974527 c -2.775137,-1.67968784 -5.550343,-2.37344673 -7.485637,-2.37344673 -2.51953,0 -4.162745,0.94947841 -4.162745,2.66568183 0,5.5867897 13.802638,2.592409 13.766126,11.7941809 0,4.564369 -4.016604,7.376047 -9.639908,7.376047 -4.016648,0 -7.814157,-1.64317 -10.443236,-4.053157 l 1.86204,-3.724394 c 2.629077,2.409987 5.915632,3.724394 8.654253,3.724394 2.994227,0 4.783425,-1.131907 4.783425,-3.103717 0,-5.696333 -13.802653,-2.519624 -13.802653,-11.6118502 0,-4.3817961 3.760871,-7.1203435 9.311145,-7.1203435 z"
       style="opacity:1;fill:url(#linearGradient854);fill-opacity:1;fill-rule:nonzero;stroke:none;stroke-width:0.06520781;stroke-miterlimit:4;stroke-dasharray:none;stroke-dashoffset:0;stroke-opacity:1" />
    <g
       transform="matrix(0.40094686,0,0,0.40094686,4.1832003,-18.889643)"
       id="text819"
       style="font-style:normal;font-variant:normal;font-weight:normal;font-stretch:normal;font-size:169.87139893px;line-height:1.25;font-family:Montserrat;-inkscape-font-specification:Montserrat;letter-spacing:0px;word-spacing:0px;fill:#ffffff;fill-opacity:1;stroke:none;stroke-width:4.55012655"
       aria-label="s" />
    <g
       id="text844"
       style="font-style:normal;font-variant:normal;font-weight:normal;font-stretch:normal;font-size:59.4046669px;line-height:1.25;font-family:Montserrat;-inkscape-font-specification:Montserrat;letter-spacing:0px;word-spacing:0px;fill:#ffffff;fill-opacity:1;stroke:none;stroke-width:1.59119642"
       aria-label="S" />
  </g>
</svg>
